/* XPM */
static char *sonots[] = {
/* columns rows colors chars-per-pixel */
"40 40 247 2 ",
"   c #020205",
".  c #0A0505",
"X  c #02040B",
"o  c #0C0809",
"O  c #160A07",
"+  c #140C0A",
"@  c #1D110A",
"#  c #090B14",
"$  c #040D1C",
"%  c #140D14",
"&  c #0A101B",
"*  c #191519",
"=  c #210705",
"-  c #27180E",
";  c #3A1A0A",
":  c #281915",
">  c #37171A",
",  c #2C2118",
"<  c #392618",
"1  c #000E23",
"2  c #051529",
"3  c #1A1B22",
"4  c #031C34",
"5  c #001B39",
"6  c #381924",
"7  c #05223A",
"8  c #192230",
"9  c #282529",
"0  c #34302F",
"q  c #272938",
"w  c #431D14",
"e  c #482B0A",
"r  c #432D1B",
"t  c #4B331E",
"y  c #6E3A07",
"u  c #481D23",
"i  c #681B28",
"p  c #4E2E2E",
"a  c #533724",
"s  c #463C38",
"d  c #6D302F",
"f  c #793737",
"g  c #6E4100",
"h  c #764800",
"j  c #7B4B00",
"k  c #5C4127",
"l  c #4C433D",
"z  c #574738",
"x  c #6E4F34",
"c  c #6B5239",
"v  c #0C1E44",
"b  c #012646",
"n  c #162E47",
"m  c #012B53",
"M  c #05355C",
"N  c #183650",
"B  c #263649",
"V  c #323849",
"C  c #253D58",
"Z  c #043C68",
"A  c #713C4A",
"S  c #37434F",
"D  c #174A6D",
"F  c #334F6E",
"G  c #4C4D50",
"H  c #79474A",
"J  c #675645",
"K  c #785D43",
"L  c #506457",
"P  c #766752",
"I  c #535B6C",
"U  c #714D69",
"Y  c #576377",
"T  c #726E69",
"R  c #903737",
"E  c #864D01",
"W  c #8C5301",
"Q  c #885306",
"!  c #8E530F",
"~  c #945803",
"^  c #955C19",
"/  c #A55600",
"(  c #B35C00",
")  c #A34617",
"_  c #9C630B",
"`  c #9D6217",
"'  c #B96402",
"]  c #A66B19",
"[  c #B06F19",
"{  c #BB751E",
"}  c #8D4E36",
"|  c #8B483C",
" . c #A94D26",
".. c #AB4C37",
"X. c #B75836",
"o. c #956734",
"O. c #AD6E23",
"+. c #A46A28",
"@. c #AE7328",
"#. c #B57529",
"$. c #BC792A",
"%. c #A46F32",
"&. c #AC7434",
"*. c #B57A35",
"=. c #BE7D34",
"-. c #BB7D3B",
";. c #C37111",
":. c #C55F3D",
">. c #C37C28",
",. c #C17F35",
"<. c #863744",
"1. c #854548",
"2. c #994847",
"3. c #97534F",
"4. c #A44946",
"5. c #B8594A",
"6. c #AA5153",
"7. c #BA5959",
"8. c #876847",
"9. c #9B754B",
"0. c #937057",
"q. c #BB6558",
"w. c #AA7150",
"e. c #AF5067",
"r. c #957372",
"t. c #B3666A",
"y. c #B36F6E",
"u. c #C55C55",
"i. c #C76757",
"p. c #D27255",
"a. c #D2725B",
"s. c #E37F4C",
"d. c #CF5C6E",
"f. c #CB6467",
"g. c #CA786D",
"h. c #D5716D",
"j. c #E56C66",
"k. c #E57979",
"l. c #BA813C",
"z. c #C38239",
"x. c #D78E3B",
"c. c #DA923C",
"v. c #BD8848",
"b. c #A28057",
"n. c #B58A58",
"m. c #948973",
"M. c #A28774",
"N. c #C68947",
"B. c #D79246",
"V. c #DB9443",
"C. c #D4924A",
"Z. c #C48E52",
"A. c #CB9355",
"S. c #C4955A",
"D. c #C5955C",
"F. c #C9955C",
"G. c #D39759",
"H. c #E19747",
"J. c #C79763",
"K. c #C69A62",
"L. c #CB9A65",
"P. c #CC9D6A",
"I. c #D49C64",
"U. c #D29E6B",
"Y. c #D48A72",
"T. c #EA8B6C",
"R. c #E58478",
"E. c #EB9677",
"W. c #F59B7B",
"Q. c #C2A169",
"!. c #CEA16D",
"~. c #D3A16E",
"^. c #C2A875",
"/. c #D5A373",
"(. c #D6A676",
"). c #F8A37E",
"_. c #156A9F",
"`. c #296999",
"'. c #316692",
"]. c #2573A6",
"[. c #675F84",
"{. c #717290",
"}. c #926787",
"|. c #B16F88",
" X c #AF6BA0",
".X c #D1798F",
"XX c #C27EA1",
"oX c #1A85BE",
"OX c #2085BC",
"+X c #6D95A2",
"@X c #6898B4",
"#X c #1F8FC5",
"$X c #4FA3C6",
"%X c #948F91",
"&X c #B68D8F",
"*X c #BAB390",
"=X c #908BAE",
"-X c #B18FAD",
";X c #B796BA",
":X c #ADA7A9",
">X c #CD8E8B",
",X c #CC8799",
"<X c #EC8D86",
"1X c #F79986",
"2X c #C1B182",
"3X c #D4B694",
"4X c #E8A38F",
"5X c #F8A288",
"6X c #FAAB96",
"7X c #FBB399",
"8X c #C893A9",
"9X c #CD93B1",
"0X c #D19CB7",
"qX c #CEA2BD",
"wX c #FEBBA6",
"eX c #E4A7B4",
"rX c #89C2B2",
"tX c #B4D2B2",
"yX c #C5C09D",
"uX c #F6CCB4",
"iX c #FBC9B6",
"pX c #B29AC4",
"aX c #97A7C2",
"sX c #AAA7CA",
"dX c #A8B4D8",
"fX c #B9B3D8",
"gX c #AEB6E5",
"hX c #B6BCE5",
"jX c #C9A8C7",
"kX c #D3A7CA",
"lX c #C5A9D2",
"zX c #D3AED1",
"xX c #C8B6D9",
"cX c #E8B6C6",
"vX c #C3BCE2",
"bX c #B2DAC4",
"nX c #A3DED3",
"mX c #ADEAD1",
"MX c #B5F7E4",
"NX c #D4D4D5",
"BX c #F1D4CB",
"VX c #F8E3D7",
"CX c #C8C3E8",
"ZX c #C8CDF1",
"AX c #CCD1F3",
"SX c #CEF6EC",
"DX c #F2F2EE",
/* pixels */
"J.L.A.=.] O.z.c.c.c.c.B.S.S.S.S.F.F.S.Z.v.*.] _ ~ W Q j j j j h h g g g g g h j ",
"L.L.F.=.O.O.z.x.c.c.c.c.G.F.F.F.F.F.D.S.F.S.Z.-.&.] _ ~ ~ j j j h j h g g g g g ",
"L.L.J.z.O.O.,.c.V.c.c.C.G.D.n.b.9.9.n.n.J.n.n.J.Z.v.l.#._ _ _ j j j j h h h h g ",
"L.L.I.w.@.O.,.V.V.V.c.C.S.9.J c J K c x 8.n.J.K.F.F.F.S.l.l.l.] _ ~ j j j j h h ",
"L.L.I.N.@.O.,.V.V.H.V.C.P z J J z z s < - k 0.P K 9.n.n.K.S.v.l.l.l._ j _ j h h ",
"L.U.L.w.&.O.,.B.H.V.C.J 0 s G V z z c a , , 8 N q l K b.n.K.S.Q.S.v.l.l.l._ Q h ",
"L.U.U.Z.&.O.,.B.H.C.L q 8 B B G s J 8.c z < : 8 s z c o.c l.K.K.S.S.S.n.l.l.l.l.",
"P.U.U.Z.#.O.>.B.C.P b 4 8 n V G s J 0.8.c a @ , l K b.o.k k b.K.S.Q.S.S.S.v.v.v.",
"P.U.U.Z.*.@.,.C.0.D 7 4 7 B I G 0 s z p : - @ % < x 8.8.a r a 9.Q.Q.S.S.S.S.S.v.",
"U.P.~.Z.#.@.$.w.D M 4 4 3 G I V q 9 * % + > a : @ < t k k r ; t m.*X2XQ.Q.S.S.S.",
"P.!.~.F.$.@.w.I Z b 7 3 q F F n 8 % % > u 0.~.w.; O @ - t t < ; L bXbXtX2XQ.S.Q.",
"U./.Y.F.*.#.P Z M b 4 4 n C m v & % 6 d R Y.7X<X} ; O O - r r < , rXMXnXtX2XQ.S.",
"U.~./.F.-.&.G Z M 7 4 7 b M m 2 % u d <.u.T.5XW.i.d ; . + - < r , +XDXmXtXtXQ.K.",
"U.!./.J.=.%.D Z 7 7 b 7 b b 5 # 6 d 4.u.T.1X7X1XT.4.i O . + @ - , T DXMXmXtX^.K.",
"U././.J.=.o.D m 7 5 b 5 7 5 $ : i | 4.j.1XwXiXwX5Xg.} w . . + @ - L DXSXmXbX^.K.",
"U./.!.P.-.o.D b 5 5 b 2 7 $ # u R ..i.k.1XwXwX6XR.g.3.d @   . + @ S DXSXmXmX2XK.",
"U.~./.P.l.9.D 5 5 5 4 1 1 o = u d R 2.f.<X<Xk.7.1.<.1.f > o . o + 0 SXSXnXbX2XK.",
"I././.U.z.%.M 2 5 2 $ 1 $ o u A H A H 6.h.R.f.2.3.q.y.0.p 3 % o + , bXSXbXtX2XL.",
"I.!./.U.z.&.B $ 1 1 $ 1 # 6 U }.<.A 3.3.y.&X3...| H 6.q.f : % . O - %XyX*X2X^.L.",
"I././.P.N.&.S $ 1 1 X v n A  XU p p A 6.H M.H 4.d d 3...| 6 +   O - 9.!.!.Q.!.Q.",
"L././.U.v.#.l $ 1 X X V [.U  X}.e.e.6.6.>XVX>Xq.5.7.f.a.y.8.6   . - 9.!.P.K.K.P.",
"I./.(.U.N.#.z 1 & . O {.gX=X}.}.e.e.t.|.BXDXBX4Xg.i.h.Y.4XE.d   . - w.~.Q.P.P.P.",
"I./.(./.x.$.c & &   o  XvXvX;X.Xt.d.k.eXVXVXVXiXwX1X1X6XwX6Xx O . : n.!.P.L.P.P.",
"G./././.z.z.x 3 # X 2 =XAXvXzX.X.Xk.<XcXcXwX7X7XwXiXiXwX7XW.2.= o < K.!.!.!.P.L.",
"G./././.N.$.+., * X 3 =XAXAXzX.Xj.k.<XXXe.d...u.W.<X7X6X1XW...O . x L.!.!.P.P.P.",
"G.U././.C.$.{ k & o q sXAXCXcX.X.X.X9XXXy.7.4.j.6XW.1X5XW.W.w.O - 9.!.!.!.P.Q.!.",
"G.U.E./.N.$.{ +.< & 0 -XAXvXzX9X.X.XkXlX8Xd..XwXBXBX6X6XW.).4.@ e v.G.T.L.!.L.L.",
"G.U.(./.A.$.#.$.x 3 u -XZXvXxXzXkXeXzX.Xe.e.d.1XiXiX7X6XW.W.x @ y ;.>.,.N.N.Z.F.",
"V.~././.A.$.{ z.,.z & I ZXvXvXxXkXXX|.<.i i i R u.Y.E.5XW.E.t ; / ( ( ' ;.;.;.>.",
"C.~.(./.A.$.{ ;.x.w.q B fXvXxXzXeX.XXX Xe.e.e.u.5.5.T.E.W.q.; h / ( ( ( ( ' ' ' ",
"C.~./.(.C.>.>.z.x.C.G v {.vXxXxX0X0X0XXXd.d.j.a.p.p.g.T.Y.x e W / E / / ( ( ( ( ",
"B.~././.A.z.{ ;.B.C.T b S gXvXzX0X0XkX.Xf.X.u.p.p.y.m.r.r.0.! E E E E W W ~ / / ",
"C.~.~.(.G.>.$.;.x.V.T b C dXgXfXxXlXjXqX|.5.:.s.g.{.Y T M.M.b.^ Q ! Q ! Q Q W ~ ",
"B.~./.(.G.z.{ >.c.G.T m C dXhXfXfXfXxX9Xy.X.X.H.%X`.C s l l J x ^ ^ ^ ^ ^ ^ ! ! ",
"H.I./.(.G.>.>.v.M.J S m C dXhXdXsX;X-Xy.u.X. .X.I Z 8 9 0 a z x %.+.+.^ ` ^ ^ ^ ",
"V.I.~.(.G.v.+X$XD X $ 4 D dXfXpX;X;X|.q. . .)  .G b 2 3 0 s 0 o.l.l.&.l.&.@.+.+.",
"V.I.3X*XrX$XOXOXM   X X V dXlX;X-XpX-Xe...) ) #.t.n m N T m.8.w.A.l.z.l.l.l.l.*.",
"!.:X@X#XoX].`.'.C       G fXlX0X8X;X-Xt.5.....q.T.0._.].T *X:XP 3X3Xl.z.[ ' { l.",
"NXaX].]._.`.'.F C X     V sXjX8X8X8X&Xt.6.X.5.i.E.E.@X].%XVXVX*X&XNXuX2XA.l._ ' ",
"NXNX+X'.'.'.F F S # X X 0 :X8X8X,X,X,Xg.q.5.5.g.E.).%XhXDXVXwXBXBXVXVXVXBXuX^.z."
};
